<svg width="22" height="20" viewBox="0 0 22 20" fill="none" xmlns="http://www.w3.org/2000/svg">
<path d="M7 17.9998V11.9998H15V17.9998H18V1.99976H4V17.9998H7ZM9 17.9998H13V13.9998H9V17.9998ZM20 17.9998H22V19.9998H0V17.9998H2V0.999756C2 0.734539 2.10536 0.480185 2.29289 0.292649C2.48043 0.105113 2.73478 -0.000244141 3 -0.000244141H19C19.2652 -0.000244141 19.5196 0.105113 19.7071 0.292649C19.8946 0.480185 20 0.734539 20 0.999756V17.9998ZM10 5.99976V3.99976H12V5.99976H14V7.99976H12V9.99976H10V7.99976H8V5.99976H10Z" fill="black"/>
</svg>
