<svg viewBox="0 0 17 20" xmlns="http://www.w3.org/2000/svg">
<path d="M4 8.34076V10.5348C2.804 11.2268 2 12.5198 2 13.9998C2 16.2098 3.79 17.9998 6 17.9998C7.48 17.9998 8.773 17.1958 9.465 15.9998H11.658C10.835 18.3298 8.612 19.9998 6 19.9998C2.686 19.9998 0 17.3138 0 13.9998C0 11.3868 1.67 9.16476 4 8.34076ZM8 14.9998C6.343 14.9998 5 13.6568 5 11.9998V7.99976C5 6.95576 5.534 6.03576 6.343 5.49876C5.533 4.96376 5 4.04376 5 2.99976C5 1.34276 6.343 -0.000244141 8 -0.000244141C9.657 -0.000244141 11 1.34276 11 2.99976C11 4.04376 10.466 4.96376 9.657 5.50076C10.467 6.03576 11 6.95576 11 7.99976V12.9988L12.434 12.9998C13.082 12.9998 13.687 13.3138 14.06 13.8358L14.149 13.9708L16.857 18.4858L15.143 19.5138L12.433 14.9998L11 14.9988L8 14.9998ZM8 6.99976C7.448 6.99976 7 7.44776 7 7.99976V11.9998C7 12.5518 7.448 12.9998 8 12.9998H8.999L9 7.99976C9 7.44776 8.552 6.99976 8 6.99976ZM8 1.99976C7.448 1.99976 7 2.44776 7 2.99976C7 3.55176 7.448 3.99976 8 3.99976C8.552 3.99976 9 3.55176 9 2.99976C9 2.44776 8.552 1.99976 8 1.99976Z" fill="black"/>
</svg>
