<svg viewBox="0 0 182 234" fill="none" xmlns="http://www.w3.org/2000/svg">
  <path fill-rule="evenodd" clip-rule="evenodd" d="M43.217 50.0508C53.6787 37.3779 69.7041 28 91.6261 28C114.626 28 130.35 38.4868 140.21 51.7616C148.768 63.2876 153.581 77.1603 154 91.5069C153.776 105.902 148.98 119.854 140.305 131.347C130.414 144.194 114.674 154 91.6261 154C53.219 154 35.9572 125.058 30.1399 109.471C29.7657 108.448 29.8136 107.318 30.2728 106.33C30.7321 105.342 31.5652 104.577 32.5889 104.204C33.6126 103.83 34.7429 103.877 35.7313 104.336C36.7197 104.795 37.4852 105.628 37.8594 106.651C43.2329 121.066 58.4657 145.874 91.6261 145.874C111.963 145.874 125.341 137.367 133.742 126.437C141.336 116.351 145.547 104.126 145.773 91.5069C145.355 78.8747 141.097 66.6692 133.568 56.514C125.088 45.1242 111.694 36.1265 91.6261 36.1265C72.3512 36.1265 58.6084 44.253 49.605 55.1358C42.1119 64.3285 37.5166 75.5365 36.4011 87.3407H48.4478L54.2176 77.836C54.626 77.1643 55.2174 76.6228 55.9227 76.275C56.628 75.9272 57.4178 75.7876 58.1997 75.8724C58.9816 75.9572 59.7231 76.2629 60.3373 76.7538C60.9515 77.2447 61.413 77.9003 61.6677 78.6439L73.8412 115.332L85.6661 44.8232C85.7581 44.2914 85.9541 43.7829 86.243 43.327C86.5319 42.871 86.908 42.4764 87.3498 42.1659C87.7915 41.8554 88.2902 41.6351 88.8173 41.5175C89.3444 41.4 89.8895 41.3875 90.4214 41.4808C90.9513 41.5635 91.4596 41.7504 91.9167 42.0307C92.3739 42.3109 92.771 42.679 93.0849 43.1135C93.3989 43.5481 93.6236 44.0406 93.7459 44.5624C93.8682 45.0843 93.8858 45.6252 93.7977 46.1539L79.2465 133.011C79.0741 133.896 78.6154 134.701 77.941 135.301C77.2665 135.901 76.4136 136.263 75.5133 136.331C74.613 136.399 73.7152 136.17 72.9578 135.679C72.2003 135.188 71.6253 134.462 71.3209 133.613L56.7221 89.6218L54.3127 93.5188C53.9393 94.1243 53.4169 94.6241 52.7954 94.9707C52.1738 95.3174 51.4739 95.4992 50.7621 95.4989H32.1213C31.0379 95.5031 29.9968 95.0792 29.2248 94.3196C28.4528 93.56 28.0125 92.5262 28 91.4436C28.2701 76.3284 33.6311 61.7456 43.217 50.0508V50.0508Z" fill="url(#paint0_linear_196_56)"/>
  <path d="M90.9921 113.066C95.2778 113.038 99.4591 111.742 103.009 109.342C106.559 106.942 109.318 103.546 110.938 99.5806C112.559 95.6155 112.968 91.2596 112.115 87.0623C111.262 82.865 109.184 79.0142 106.143 75.9955C103.103 72.9768 99.2362 70.9255 95.0307 70.1002C90.8252 69.275 86.4694 69.7127 82.5125 71.3582C78.5557 73.0037 75.1749 75.7833 72.7968 79.3465C70.4186 82.9096 69.1494 87.0968 69.1493 91.3798C69.1703 97.1497 71.4829 102.675 75.5787 106.742C79.6746 110.808 85.2186 113.083 90.9921 113.066Z" fill="#634ADD"/>
  <path fill-rule="evenodd" clip-rule="evenodd" d="M90.1836 45.0927C92.3076 44.3006 92.6881 41.9244 93.4965 43.9679L110.124 87.4042H134.392C135.473 87.4042 136.509 87.8331 137.273 88.5966C138.037 89.3601 138.466 90.3956 138.466 91.4753C138.466 92.5551 138.037 93.5906 137.273 94.3541C136.509 95.1176 135.473 95.5465 134.392 95.5465H107.303C106.476 95.5498 105.667 95.3015 104.985 94.8347C104.303 94.3678 103.779 93.7044 103.483 92.9327L85.8404 46.8668C85.032 44.7758 88.0754 45.9005 90.1836 45.0927Z" fill="url(#paint1_linear_196_56)"/>
  <path d="M50.54 178.32H46.48V187.42L46.872 187.812H34.188L34.58 187.42V178.32H30.52V201H34.58V191.9L34.188 191.508H46.872L46.48 191.9V201H50.54V178.32Z" fill="#634ADD"/>
  <path d="M73.6269 197.304H59.2349L59.6269 196.912V191.9L59.2349 191.508H72.2829V187.812H59.2349L59.6269 187.42V182.408L59.2349 182.016H73.6269V178.32H55.5669V201H73.6269V197.304Z" fill="#634ADD"/>
  <path d="M94.8421 197.304H81.7661L82.1581 196.912V178.32H78.0981V201H94.8421V197.304Z" fill="#634ADD"/>
  <path d="M101.986 178.32H97.9257V201H101.986V178.32Z" fill="#634ADD"/>
  <path d="M124.693 189.8C124.693 194.28 122.649 197.584 117.525 197.584C112.429 197.584 110.329 194.28 110.329 189.8C110.329 185.18 112.429 181.736 117.525 181.736C122.649 181.736 124.693 185.32 124.693 189.8ZM128.837 189.8C128.837 182.996 124.973 178.04 117.497 178.04C110.077 178.04 106.185 183.024 106.185 189.8C106.185 196.576 110.077 201.28 117.497 201.28C124.833 201.28 128.837 196.576 128.837 189.8Z" fill="#634ADD"/>
  <path d="M152.075 194.532C152.075 191.648 149.919 189.296 145.243 188.148C144.711 188.008 142.079 187.336 141.603 187.196C137.655 186.16 136.619 185.432 136.619 184.368C136.619 183.248 137.907 181.736 142.079 181.736C144.851 181.736 146.895 182.772 148.631 184.76L151.543 181.848C149.023 179.3 145.859 178.04 142.051 178.04C135.667 178.04 132.475 181.036 132.475 184.48C132.475 188.148 135.779 189.632 139.867 190.724C140.371 190.864 143.563 191.648 144.067 191.788C147.035 192.516 147.931 193.72 147.931 194.7C147.931 196.128 146.363 197.584 142.219 197.584C139.531 197.584 137.459 196.8 134.687 194.392L131.775 197.276C134.687 200.16 138.579 201.28 142.331 201.28C149.247 201.28 152.075 198.004 152.075 194.532Z" fill="#634ADD"/>
  <defs>
    <linearGradient id="paint0_linear_196_56" x1="90.9921" y1="32.0712" x2="90.9921" y2="149.168" gradientUnits="userSpaceOnUse">
      <stop stop-color="#F95C5E"/>
      <stop offset="0.36" stop-color="#FCBFBF"/>
      <stop offset="0.48" stop-color="#B687C9"/>
      <stop offset="0.6" stop-color="#9A9AF7"/>
      <stop offset="0.9" stop-color="#634ADD"/>
    </linearGradient>
    <linearGradient id="paint1_linear_196_56" x1="112.09" y1="31.9446" x2="112.09" y2="149.375" gradientUnits="userSpaceOnUse">
      <stop stop-color="#F95C5E"/>
      <stop offset="0.39" stop-color="#FCBFBF"/>
      <stop offset="0.51" stop-color="#B687C9"/>
      <stop offset="0.61" stop-color="#9A9AF7"/>
      <stop offset="0.9" stop-color="#634ADD"/>
    </linearGradient>
  </defs>
</svg>
