<svg viewBox="0 0 23 19" xmlns="http://www.w3.org/2000/svg">
<path d="M4 7.0002C4.26522 7.0002 4.51957 7.10556 4.70711 7.29309C4.89464 7.48063 5 7.73498 5 8.0002C6.57114 7.99789 8.09698 8.52647 9.33 9.5002H11.5C12.832 9.5002 14.03 10.0792 14.853 10.9992L18 11.0002C18.9453 10.9999 19.8712 11.2676 20.6705 11.7722C21.4698 12.2769 22.1097 12.9977 22.516 13.8512C20.151 16.9722 16.322 19.0002 12 19.0002C9.21 19.0002 6.85 18.3972 4.94 17.3422C4.87004 17.5353 4.74224 17.702 4.57402 17.8198C4.40579 17.9376 4.20534 18.0005 4 18.0002H1C0.734784 18.0002 0.48043 17.8948 0.292893 17.7073C0.105357 17.5198 0 17.2654 0 17.0002V8.0002C0 7.73498 0.105357 7.48063 0.292893 7.29309C0.48043 7.10556 0.734784 7.0002 1 7.0002H4ZM5.001 10.0002L5 15.0212L5.045 15.0542C6.84 16.3142 9.178 17.0002 12 17.0002C15.004 17.0002 17.799 15.8442 19.835 13.8702L19.968 13.7372L19.848 13.6372C19.3758 13.2674 18.8034 13.0479 18.205 13.0072L18 13.0002L15.888 12.9992C15.961 13.3212 16 13.6562 16 14.0002V15.0002H7V13.0002L13.79 12.9992L13.756 12.9212C13.5644 12.5207 13.2696 12.1785 12.9019 11.9297C12.5343 11.6808 12.107 11.5343 11.664 11.5052L11.5 11.5002H8.57C8.10531 11.0249 7.55027 10.6474 6.93752 10.3898C6.32477 10.1322 5.66669 9.99972 5.002 10.0002H5.001ZM3 9.0002H2V16.0002H3V9.0002ZM12.646 1.5752L13 1.9302L13.354 1.5762C13.5858 1.34242 13.8615 1.15673 14.1653 1.02978C14.469 0.902837 14.7949 0.837142 15.1241 0.836468C15.4533 0.835794 15.7795 0.900155 16.0837 1.02585C16.388 1.15155 16.6645 1.33612 16.8973 1.56895C17.13 1.80178 17.3145 2.07829 17.4401 2.38261C17.5657 2.68693 17.63 3.01306 17.6292 3.34229C17.6285 3.67151 17.5627 3.99734 17.4356 4.30107C17.3086 4.60481 17.1228 4.88046 16.889 5.1122L13 9.0002L9.11 5.1102C8.87622 4.87839 8.69053 4.60269 8.56358 4.29892C8.43664 3.99515 8.37094 3.6693 8.37027 3.34008C8.36959 3.01085 8.43396 2.68474 8.55965 2.38045C8.68535 2.07617 8.86992 1.79971 9.10275 1.56694C9.33558 1.33418 9.61209 1.14969 9.91641 1.02408C10.2207 0.898468 10.5469 0.834201 10.8761 0.834968C11.2053 0.835735 11.5311 0.901522 11.8349 1.02855C12.1386 1.15558 12.4143 1.34135 12.646 1.5752ZM10.526 2.9902C10.4431 3.07262 10.3917 3.18147 10.3808 3.29785C10.3698 3.41422 10.4 3.53075 10.466 3.6272L10.524 3.6962L13 6.1702L15.476 3.6962C15.5588 3.61347 15.61 3.5043 15.6206 3.38771C15.6312 3.27112 15.6006 3.15451 15.534 3.0582L15.476 2.9882C15.3931 2.90552 15.2839 2.85454 15.1673 2.84412C15.0507 2.83371 14.9342 2.86452 14.838 2.9312L14.768 2.9892L12.999 4.7572L11.232 2.9872L11.164 2.9312C11.0677 2.86465 10.9511 2.834 10.8345 2.8446C10.7179 2.8552 10.6087 2.90637 10.526 2.9892V2.9902Z" fill="#000091"/>
</svg>
