<svg viewBox="0 0 23 28" xmlns="http://www.w3.org/2000/svg">
<path d="M5.66671 11.7876V14.7129C4.07204 15.6356 3.00004 17.3596 3.00004 19.3329C3.00004 22.2796 5.38671 24.6663 8.33337 24.6663C10.3067 24.6663 12.0307 23.5943 12.9534 21.9996H15.8774C14.78 25.1063 11.816 27.3329 8.33337 27.3329C3.91471 27.3329 0.333374 23.7516 0.333374 19.3329C0.333374 15.8489 2.56004 12.8863 5.66671 11.7876ZM11 20.6663C8.79071 20.6663 7.00004 18.8756 7.00004 16.6663V11.3329C7.00004 9.94093 7.71204 8.71426 8.79071 7.99826C7.71071 7.28493 7.00004 6.05826 7.00004 4.66626C7.00004 2.45693 8.79071 0.66626 11 0.66626C13.2094 0.66626 15 2.45693 15 4.66626C15 6.05826 14.288 7.28493 13.2094 8.00093C14.2894 8.71426 15 9.94093 15 11.3329V17.9983L16.912 17.9996C17.776 17.9996 18.5827 18.4183 19.08 19.1143L19.1987 19.2943L22.8094 25.3143L20.524 26.6849L16.9107 20.6663L15 20.6649L11 20.6663ZM11 9.99959C10.264 9.99959 9.66671 10.5969 9.66671 11.3329V16.6663C9.66671 17.4023 10.264 17.9996 11 17.9996H12.332L12.3334 11.3329C12.3334 10.5969 11.736 9.99959 11 9.99959ZM11 3.33293C10.264 3.33293 9.66671 3.93026 9.66671 4.66626C9.66671 5.40226 10.264 5.99959 11 5.99959C11.736 5.99959 12.3334 5.40226 12.3334 4.66626C12.3334 3.93026 11.736 3.33293 11 3.33293Z" fill="#000091"/>
</svg>
