<svg width="20" height="20" viewBox="0 0 20 20" fill="none" xmlns="http://www.w3.org/2000/svg">
<path d="M14 -0.000488281C14.552 -0.000488281 15 0.447512 15 0.999512V3.99951H19C19.552 3.99951 20 4.44751 20 4.99951V18.9995C20 19.5515 19.552 19.9995 19 19.9995H1C0.448 19.9995 0 19.5515 0 18.9995V4.99951C0 4.44751 0.448 3.99951 1 3.99951H5V0.999512C5 0.447512 5.448 -0.000488281 6 -0.000488281H14ZM18 5.99951H2V17.9995H18V5.99951ZM11 7.99951V10.9995H14V12.9995H10.999L11 15.9995H9L8.999 12.9995H6V10.9995H9V7.99951H11ZM13 1.99951H7V3.99951H13V1.99951Z" fill="black"/>
</svg>
